<svg width="22" height="22" viewBox="0 0 22 22" fill="none" xmlns="http://www.w3.org/2000/svg">
<g clip-path="url(#clip0)">
<path d="M18.005 5.27051C18.421 4.30719 19.3796 3.63297 20.4957 3.63297C20.8701 3.63297 21.2268 3.70885 21.5512 3.84605V2.6357C21.158 2.46941 20.6695 2.38635 20.2157 2.38635C18.8629 2.38635 17.7011 3.20354 17.1968 4.37122L18.005 5.27051Z" fill="#3E9C06"/>
<path d="M17.4637 4.61705C15.7287 2.88196 13.0395 3.01542 11.1805 4.61705C11.0619 4.71918 10.9439 4.83481 10.8261 4.96217L10.8193 5.00557L14.3739 5.00557L13.907 7.82567L16.9063 6.98794L17.8526 10.1042L18.0621 10.0239C19.0396 8.25123 18.944 6.09733 17.4637 4.61705Z" fill="#3E9C06"/>
<path d="M7.21802 15.321C7.12267 15.321 7.02672 15.2909 6.94543 15.2284C6.7491 15.0775 6.7112 14.7972 6.86172 14.6005C6.86185 14.6004 6.86486 14.5965 6.86499 14.5963C7.01594 14.3997 7.29786 14.3625 7.49444 14.5132C7.69111 14.664 7.72858 14.9454 7.57789 15.1422C7.57755 15.1426 7.57561 15.1452 7.57522 15.1456C7.48667 15.2605 7.35299 15.321 7.21802 15.321Z" fill="black"/>
<path d="M7.96432 14.1585C7.89015 14.1585 7.81491 14.14 7.74552 14.1013C7.52913 13.9802 7.45178 13.7066 7.57283 13.4903C7.90248 12.901 8.23287 12.2286 8.58268 11.5168C9.29833 10.0605 10.1092 8.41039 10.8754 7.66956L10.8815 7.66351C11.0564 7.48768 11.3407 7.4869 11.5165 7.66179C11.6923 7.83667 11.6931 8.12095 11.5182 8.29674C11.5121 8.30284 11.506 8.3089 11.4998 8.31483C10.8461 8.94699 10.0381 10.5913 9.38878 11.9125C9.03343 12.6356 8.69788 13.3184 8.35658 13.9286C8.27434 14.0757 8.12163 14.1585 7.96432 14.1585Z" fill="black"/>
<path d="M21.726 2.22222C21.2918 2.03853 20.7553 1.93738 20.2156 1.93738C18.9122 1.93738 17.7201 2.61276 17.0447 3.69657C16.258 3.17471 15.3321 2.90164 14.3617 2.91685C13.1177 2.93537 11.8837 3.41834 10.8872 4.27691C9.76775 5.24134 8.74139 7.21516 7.55296 9.50064C5.75304 12.9621 3.51298 17.2701 0.225169 19.1608C0.0565165 19.2578 -0.0304956 19.4524 0.0097233 19.6428C0.0498992 19.8331 0.208111 19.9759 0.401643 19.9965C0.748875 20.0333 1.18823 20.0626 1.70708 20.0626C3.25474 20.0626 5.50987 19.8019 8.13811 18.703C11.6219 17.2464 14.8756 14.7178 17.8088 11.1873C19.324 9.36365 19.5579 7.02821 18.5155 5.24882C18.9115 4.53347 19.6662 4.08191 20.4955 4.08191C20.8012 4.08191 21.0975 4.14168 21.3762 4.25959C21.5149 4.31829 21.6737 4.30355 21.7991 4.22032C21.9246 4.13713 22.0001 3.99662 22.0001 3.8461V2.63571C22.0001 2.45537 21.8921 2.29247 21.726 2.22222ZM14.4227 3.80528C15.4242 3.80528 16.393 4.18152 17.146 4.93455C18.2314 6.01994 18.5159 7.58852 18.0043 9.05952L17.3356 6.85753C17.2647 6.62408 17.0203 6.48989 16.7853 6.55555L14.4649 7.20365L14.8166 5.07892C14.8382 4.94881 14.8014 4.81578 14.7161 4.71519C14.6308 4.61456 14.5055 4.55659 14.3737 4.55659L12.0042 4.55659C12.7662 4.05609 13.6053 3.80528 14.4227 3.80528ZM7.79178 17.8745C5.35751 18.8924 3.27283 19.1524 1.82134 19.1646C4.70481 16.9241 6.70566 13.0766 8.34969 9.91494C9.30863 8.0708 10.1581 6.43756 10.9892 5.4546L13.8443 5.4546L13.4639 7.75236C13.4388 7.90374 13.4928 8.0574 13.607 8.15992C13.7212 8.2624 13.8799 8.29936 14.0276 8.25815L16.604 7.53855L17.4172 10.2162C17.3249 10.3511 17.2258 10.4839 17.1182 10.6134C14.2784 14.0314 11.1406 16.4744 7.79178 17.8745ZM21.1021 3.24196C20.9037 3.20337 20.7011 3.18395 20.4955 3.18395C19.4746 3.18395 18.5344 3.67384 17.9471 4.47418C17.8935 4.41497 17.8381 4.35674 17.781 4.29955C17.7704 4.28898 17.7596 4.27875 17.749 4.26836C18.2499 3.3887 19.1872 2.83534 20.2156 2.83534C20.5218 2.83534 20.8317 2.87754 21.1021 2.95398V3.24196Z" fill="black"/>
</g>
<defs>
<clipPath id="clip0">
<rect width="22" height="22" fill="white"/>
</clipPath>
</defs>
</svg>
