<svg width="55" height="28" viewBox="0 0 55 28" fill="none" xmlns="http://www.w3.org/2000/svg">
<path d="M0 18.9809H54.2012V18.2086H0V18.9809ZM0 10.0406H54.2012V9.27002H0V10.0406Z" fill="#FFD000"/>
<path d="M40.0948 3.34964C36.1263 1.15261 31.6646 0 27.1285 0C22.5924 0 18.1307 1.15261 14.1622 3.34964C14.1158 3.37576 14.0814 3.41896 14.0664 3.47004C14.0514 3.52112 14.0569 3.57606 14.0818 3.62314L17.0774 9.26849H18.9115L17.6775 6.94375C20.6457 5.59402 23.8686 4.89567 27.1293 4.89567C30.39 4.89567 33.6129 5.59402 36.5811 6.94375L35.3472 9.26849H37.1796L40.1752 3.62314C40.2001 3.57606 40.2056 3.52112 40.1906 3.47004C40.1756 3.41896 40.1412 3.37576 40.0948 3.34964V3.34964ZM37.3341 5.52155C34.1352 4.04201 30.6529 3.2757 27.1285 3.2757C23.6041 3.2757 20.1218 4.04201 16.9229 5.52155L16.1813 4.12509C19.5949 2.47539 23.3372 1.61851 27.1285 1.61851C30.9198 1.61851 34.6621 2.47539 38.0757 4.12509L37.3341 5.52155ZM27.1293 24.7614L24.0629 18.9809H22.2288L26.9604 27.8986C26.9767 27.9293 27.0011 27.9549 27.0308 27.9727C27.0606 27.9906 27.0946 28 27.1293 28C27.1627 27.9989 27.1952 27.9889 27.2235 27.9711C27.2518 27.9533 27.2748 27.9283 27.2902 27.8986L32.0217 18.9793H30.1957L27.1293 24.7614Z" fill="#0D0802"/>
<path d="M3.29632 16.9473C3.41376 16.8604 3.54568 16.4309 3.54568 15.9305V12.3187H2.90215C2.68979 12.3187 2.01891 12.3815 1.88538 12.5697C1.88193 12.5795 1.87605 12.5883 1.86828 12.5952C1.86051 12.6021 1.8511 12.6069 1.84096 12.6091C1.83082 12.6114 1.82026 12.611 1.8103 12.6081C1.80034 12.6051 1.7913 12.5997 1.78402 12.5922C1.77186 12.5623 1.77186 12.5288 1.78402 12.4989L2.10579 11.1942H6.11175L6.43352 12.4989C6.44406 12.5291 6.44406 12.562 6.43352 12.5922C6.42625 12.5997 6.4172 12.6051 6.40724 12.6081C6.39728 12.611 6.38673 12.6114 6.37658 12.6091C6.36644 12.6069 6.35703 12.6021 6.34926 12.5952C6.34149 12.5883 6.3356 12.5795 6.33216 12.5697C6.19863 12.3815 5.52775 12.3187 5.31539 12.3187H4.67186V15.9305C4.67186 16.4309 4.80378 16.8604 4.92123 16.9473C4.93337 16.9511 4.94388 16.9589 4.95104 16.9694C4.95819 16.9799 4.96158 16.9925 4.96065 17.0052C4.95972 17.0179 4.95452 17.0299 4.9459 17.0393C4.93728 17.0486 4.92575 17.0548 4.91318 17.0567H3.30275C3.26414 17.0567 3.22553 16.9859 3.30275 16.9473" fill="#0D0802"/>
<path d="M12.753 14.1255C12.753 14.7053 12.581 15.2721 12.2589 15.7541C11.9367 16.2362 11.4788 16.6119 10.9431 16.8337C10.4074 17.0556 9.8179 17.1135 9.24924 17.0003C8.68059 16.887 8.15829 16.6077 7.74841 16.1976C7.33852 15.7875 7.05948 15.265 6.94655 14.6963C6.83363 14.1276 6.89191 13.5382 7.11402 13.0026C7.33612 12.467 7.71209 12.0093 8.19434 11.6874C8.6766 11.3655 9.24349 11.1939 9.82331 11.1942C10.6003 11.195 11.3452 11.5042 11.8945 12.0538C12.4438 12.6033 12.7525 13.3484 12.753 14.1255ZM8.0166 14.1255C8.0166 14.4828 8.12256 14.8321 8.32108 15.1292C8.51961 15.4263 8.80178 15.6579 9.13191 15.7946C9.46204 15.9314 9.82531 15.9672 10.1758 15.8974C10.5262 15.8277 10.8482 15.6557 11.1008 15.403C11.3535 15.1503 11.5256 14.8284 11.5953 14.4779C11.665 14.1275 11.6292 13.7642 11.4925 13.4341C11.3557 13.1039 11.1242 12.8218 10.8271 12.6232C10.5299 12.4247 10.1806 12.3187 9.82331 12.3187C9.34453 12.32 8.88573 12.5108 8.54718 12.8493C8.20863 13.1879 8.01787 13.6467 8.0166 14.1255Z" fill="#0D0802"/>
<path d="M14.6385 16.9473C14.7543 16.8604 14.8879 16.4309 14.8879 15.9305V12.3187H14.2443C14.032 12.3187 13.3595 12.3815 13.2276 12.5697C13.1954 12.6244 13.1487 12.6164 13.1262 12.5922C13.1141 12.5623 13.1141 12.5288 13.1262 12.4989L13.448 11.1942H17.4572L17.7789 12.4989C17.7895 12.5291 17.7895 12.562 17.7789 12.5922C17.7715 12.5996 17.7623 12.605 17.7523 12.608C17.7422 12.6109 17.7316 12.6113 17.7213 12.609C17.7111 12.6068 17.7016 12.602 17.6936 12.5951C17.6857 12.5883 17.6796 12.5795 17.676 12.5697C17.544 12.3815 16.8716 12.3187 16.6608 12.3187H16.0173V15.9305C16.0173 16.4309 16.1508 16.8604 16.2682 16.9473C16.2804 16.9511 16.2909 16.9589 16.2981 16.9694C16.3052 16.9799 16.3086 16.9925 16.3077 17.0052C16.3067 17.0179 16.3015 17.0299 16.2929 17.0393C16.2843 17.0486 16.2728 17.0548 16.2602 17.0567H14.6385C14.5999 17.0567 14.5613 16.9859 14.6385 16.9473Z" fill="#0D0802"/>
<path d="M24.0952 14.1255C24.0952 14.7052 23.9232 15.2719 23.6012 15.754C23.2791 16.236 22.8213 16.6117 22.2856 16.8336C21.75 17.0555 21.1606 17.1135 20.592 17.0004C20.0234 16.8873 19.5011 16.6081 19.0912 16.1982C18.6812 15.7882 18.402 15.2659 18.2889 14.6973C18.1758 14.1287 18.2339 13.5393 18.4557 13.0037C18.6776 12.4681 19.0533 12.0103 19.5354 11.6882C20.0174 11.3661 20.5841 11.1942 21.1639 11.1942C21.9412 11.1946 22.6865 11.5036 23.2361 12.0532C23.7858 12.6028 24.0947 13.3482 24.0952 14.1255ZM19.3588 14.1255C19.3588 14.4829 19.4648 14.8322 19.6634 15.1294C19.862 15.4265 20.1442 15.6581 20.4745 15.7948C20.8047 15.9315 21.1681 15.9672 21.5186 15.8973C21.8691 15.8275 22.191 15.6552 22.4436 15.4024C22.6962 15.1496 22.8682 14.8275 22.9377 14.4769C23.0072 14.1264 22.9712 13.763 22.8342 13.4329C22.6972 13.1028 22.4654 12.8208 22.1681 12.6224C21.8708 12.4241 21.5213 12.3184 21.1639 12.3187C20.6853 12.32 20.2266 12.5108 19.8883 12.8494C19.55 13.188 19.3596 13.6468 19.3588 14.1255Z" fill="#0D0802"/>
<path d="M28.8203 12.3187C28.8203 11.8184 28.6867 11.3888 28.5693 11.3036C28.4985 11.2634 28.5387 11.1942 28.5773 11.1942H31.8288C32.8375 11.1942 33.8221 11.569 33.8141 12.7419C33.798 14.3829 31.211 15.1326 29.9529 15.6377V15.9354C29.9529 16.4357 30.0864 16.8653 30.2022 16.9522C30.273 16.9908 30.2344 17.0616 30.2022 17.0616H28.5773C28.5648 17.0596 28.5532 17.0534 28.5446 17.0441C28.536 17.0347 28.5308 17.0227 28.5299 17.01C28.5289 16.9974 28.5323 16.9847 28.5395 16.9742C28.5466 16.9637 28.5571 16.9559 28.5693 16.9522C28.6867 16.8653 28.8203 16.4357 28.8203 15.9354V12.3187ZM29.9464 14.4295C30.5401 14.2027 32.6814 13.4835 32.6814 12.7338C32.6814 12.3187 32.1264 12.3187 31.8207 12.3187H29.9529L29.9464 14.4295Z" fill="#0D0802"/>
<path d="M34.2661 16.9473C34.3836 16.8604 34.5171 16.4309 34.5171 15.9305V12.3187C34.5171 11.8184 34.3836 11.3888 34.2661 11.3036C34.1953 11.2634 34.2356 11.1942 34.2742 11.1942H35.8926C35.9313 11.1942 35.9699 11.2634 35.8926 11.3036C35.7752 11.3888 35.6433 11.8184 35.6433 12.3187V15.9305C35.6433 16.4309 35.7752 16.8604 35.8926 16.9473C35.9634 16.9859 35.9248 17.0567 35.8926 17.0567H34.2758C34.2632 17.0548 34.2517 17.0486 34.2431 17.0393C34.2344 17.0299 34.2292 17.0179 34.2283 17.0052C34.2274 16.9925 34.2308 16.9799 34.2379 16.9694C34.2451 16.9589 34.2556 16.9511 34.2677 16.9473" fill="#0D0802"/>
<path d="M36.9416 12.5697C36.9094 12.6244 36.8628 12.6164 36.8402 12.5922C36.8281 12.5623 36.8281 12.5288 36.8402 12.4989L36.8869 12.3187L37.1604 11.1926H40.7625L41.2452 12.2077C39.9274 13.2225 38.8226 14.487 37.9938 15.9289H40.0257C40.2365 15.9289 40.917 15.8662 41.0425 15.6796C41.0731 15.6233 41.1278 15.6313 41.1438 15.6554C41.1599 15.6796 41.1438 15.7182 41.1438 15.7488L41.1036 15.9289L40.8301 17.0551H36.9416L36.5507 16.2266C37.2701 14.7715 38.2319 13.4494 39.3951 12.3171H37.9568C37.746 12.3171 37.0735 12.3799 36.9416 12.5681" fill="#0D0802"/>
<path d="M42.0995 12.5697C42.096 12.5795 42.0902 12.5883 42.0824 12.5952C42.0746 12.6021 42.0652 12.6069 42.0551 12.6091C42.0449 12.6114 42.0344 12.611 42.0244 12.6081C42.0144 12.6051 42.0054 12.5997 41.9981 12.5922C41.986 12.5623 41.986 12.5288 41.9981 12.4989L42.0448 12.3187L42.3183 11.1926H45.922L46.4047 12.2077C45.0879 13.2235 43.9832 14.4878 43.1533 15.9289H45.1852C45.3976 15.9289 46.0765 15.8662 46.202 15.6796C46.2342 15.6233 46.2889 15.6313 46.3033 15.6554C46.3178 15.6796 46.3114 15.7182 46.3033 15.7488L46.2647 15.9289L45.9912 17.0551H42.0979L41.7069 16.2266C42.43 14.7712 43.3957 13.4497 44.5626 12.3187H43.1146C42.9039 12.3187 42.2314 12.3815 42.0979 12.5697" fill="#0D0802"/>
<path d="M52.4329 17.0567H51.0268C51.0138 17.0561 51.0013 17.051 50.9916 17.0423C50.9819 17.0335 50.9755 17.0216 50.9736 17.0087C50.9717 16.9957 50.9744 16.9825 50.9812 16.9713C50.9879 16.9601 50.9984 16.9516 51.0107 16.9473C51.1362 16.8685 51.0896 16.6658 51.0654 16.5403L50.9174 15.7584C50.1983 15.2902 48.9321 15.9 48.4398 16.4775L48.4157 16.6191C48.3932 16.7205 48.3851 16.8846 48.4865 16.9409C48.4989 16.9452 48.5093 16.9537 48.5161 16.9649C48.5229 16.9761 48.5255 16.9893 48.5236 17.0022C48.5217 17.0152 48.5154 17.027 48.5056 17.0358C48.4959 17.0446 48.4835 17.0497 48.4704 17.0503H47.0643C47.0241 17.0503 46.9855 16.9795 47.0563 16.9409C47.1721 16.854 47.2429 16.7527 47.3362 16.2604L48.1889 11.7428C48.2275 11.5079 48.2516 11.3824 48.1342 11.2971C48.0634 11.2569 48.1036 11.1877 48.1422 11.1877H51.3599C51.3985 11.1877 51.4371 11.2569 51.3599 11.2971C51.2424 11.3824 51.2649 11.5079 51.3052 11.7428L52.1562 16.2604C52.2511 16.7527 52.3171 16.854 52.4378 16.9409C52.5086 16.9795 52.4699 17.0503 52.4297 17.0503L52.4329 17.0567ZM50.6761 14.4923L50.2626 12.3187H49.2282L48.7455 14.8671C49.3373 14.5525 50.0096 14.4219 50.6761 14.4923Z" fill="#0D0802"/>
</svg>
