<svg width="15" height="20" viewBox="0 0 15 20" fill="none" xmlns="http://www.w3.org/2000/svg">
<path d="M7.5 0C3.36426 0 0 3.36465 0 7.5C0 13.033 6.91977 19.6094 7.21438 19.8869C7.29492 19.9621 7.39746 20 7.5 20C7.60254 20 7.70508 19.9621 7.78566 19.8869C8.08023 19.6094 15 13.033 15 7.5C15 3.36465 11.6357 0 7.5 0ZM7.5 19.0002C6.19059 17.6929 0.83332 12.0638 0.83332 7.5C0.83332 3.82406 3.82406 0.83332 7.5 0.83332C11.1759 0.83332 14.1667 3.82406 14.1667 7.5C14.1667 12.0638 8.80941 17.6929 7.5 19.0002Z" fill="#FCBD10"/>
<path d="M7.50002 3.33333C5.20263 3.33333 3.33333 5.20263 3.33333 7.50001C3.33333 9.7974 5.20267 11.6667 7.50002 11.6667C9.79737 11.6667 11.6667 9.7974 11.6667 7.50001C11.6667 5.20263 9.79741 3.33333 7.50002 3.33333ZM7.50002 10.8333C5.66162 10.8333 4.1667 9.33798 4.1667 7.50001C4.1667 5.66204 5.66166 4.16669 7.50002 4.16669C9.33839 4.16669 10.8334 5.66204 10.8334 7.50001C10.8334 9.33798 9.33843 10.8333 7.50002 10.8333Z" fill="#FCBD10"/>
</svg>
