<svg width="18" height="18" viewBox="0 0 18 18" fill="none" xmlns="http://www.w3.org/2000/svg">
<g clip-path="url(#clip0)">
<path d="M16.7016 6.68134C14.7617 2.7181 8.00335 0.048126 0.702637 0.569605C3.81065 3.21872 3.78979 7.76601 5.50025 11.2912C8.0242 16.214 12.801 15.6716 15.4084 13.106C17.0771 11.4998 17.8697 9.08014 16.7016 6.68134Z" fill="#77BC4A"/>
<path d="M17.7867 17.2987C17.307 15.8594 16.7229 14.5035 16.0346 13.2103C16.0554 13.1894 16.0763 13.1477 16.118 13.1268C17.6825 11.3747 18.3499 8.89242 17.161 6.4519C16.118 4.34513 13.8235 2.59296 10.8198 1.4457C7.92036 0.340167 4.35345 -0.202171 0.661373 0.0689981C0.369345 0.0898573 0.160753 0.340167 0.181612 0.611336C0.202471 0.757351 0.265049 0.882506 0.369345 0.986801C2.22581 2.59296 2.91416 5.01262 3.60252 7.41142C4.0197 8.82985 4.41602 10.2483 5.0418 11.5415C5.0418 11.5624 5.06266 11.5624 5.06266 11.5833C6.62709 14.6078 9.0259 15.6925 11.2995 15.5465C12.2174 15.4839 13.1352 15.2336 13.9487 14.8164C14.4076 14.587 14.8665 14.2949 15.2628 13.9612C15.8677 15.1293 16.3683 16.36 16.8064 17.6533C16.8898 17.9244 17.1818 18.0705 17.453 17.9662C17.745 17.8619 17.891 17.5698 17.7867 17.2987ZM13.4898 13.8986C12.7805 14.2532 12.0296 14.4827 11.237 14.5244C9.31793 14.6496 7.31545 13.7109 5.98046 11.1035V11.0826C5.37554 9.87281 5.00008 8.4961 4.62461 7.14026C3.99884 4.95004 3.39392 2.75983 1.91292 1.04938C5.0418 0.965942 8.02466 1.48742 10.486 2.42608C13.2394 3.46904 15.3462 5.05434 16.264 6.93166C17.2027 8.85071 16.7229 10.8323 15.534 12.2716C14.9916 11.3538 14.4076 10.4777 13.7609 9.66421C12.0088 7.41142 9.79769 5.49238 7.086 3.96966C6.83569 3.82365 6.5228 3.92794 6.39764 4.15739C6.25163 4.4077 6.35593 4.72059 6.58538 4.84575C9.17191 6.30589 11.2578 8.14149 12.9474 10.29C13.6149 11.1452 14.2198 12.063 14.783 13.0434C14.3867 13.3563 13.9487 13.6483 13.4898 13.8986Z" fill="#023600"/>
</g>
<defs>
<clipPath id="clip0">
<rect width="18" height="18" fill="white"/>
</clipPath>
</defs>
</svg>
