<svg width="15" height="15" viewBox="0 0 15 15" fill="none" xmlns="http://www.w3.org/2000/svg">
<path d="M13.7964 9.84578C12.878 9.84578 11.9763 9.70215 11.1218 9.41977C10.6958 9.27449 10.2108 9.38723 9.93283 9.67043L8.24623 10.9436C6.29026 9.89953 5.08542 8.69508 4.05558 6.75379L5.29131 5.11113C5.61237 4.79051 5.72752 4.32215 5.58956 3.8827C5.30596 3.02371 5.1619 2.12242 5.1619 1.20367C5.16194 0.539961 4.62198 0 3.95831 0H1.20359C0.53996 0 0 0.539961 0 1.20359C0 8.81106 6.18897 15 13.7964 15C14.46 15 15 14.46 15 13.7964V11.0494C15 10.3857 14.46 9.84578 13.7964 9.84578ZM14.1666 13.7964C14.1666 14.0007 14.0006 14.1667 13.7964 14.1667C6.64834 14.1667 0.833357 8.35164 0.833357 1.20363C0.833357 0.999375 0.999372 0.833359 1.20363 0.833359H3.95835C4.16261 0.833359 4.32862 0.999375 4.32862 1.20363C4.32862 2.21152 4.4869 3.2007 4.79655 4.13781C4.83967 4.27617 4.80468 4.41937 4.66471 4.56508L3.23241 6.46199C3.1364 6.58934 3.12132 6.75984 3.19335 6.90184C4.36237 9.19961 5.78288 10.6201 8.09689 11.8058C8.23767 11.8795 8.41021 11.864 8.53799 11.7676L10.4785 10.2975C10.5765 10.1994 10.7234 10.1644 10.8561 10.2096C11.7997 10.5212 12.7889 10.6791 13.7964 10.6791C14.0006 10.6791 14.1666 10.8452 14.1666 11.0494V13.7964Z" fill="#FCBD10"/>
</svg>
